<svg width="129" height="22" viewBox="0 0 129 22" fill="none" xmlns="http://www.w3.org/2000/svg">
<path d="M38.0523 10.8131C39.5855 11.4896 40.2209 12.5171 39.9586 13.8956L39.852 14.46C39.6224 15.6684 39.0444 16.5873 38.1138 17.2133C37.1833 17.8428 35.9535 18.1539 34.4203 18.1539C32.8871 18.1539 31.8008 17.8392 31.108 17.2133C30.4152 16.5873 30.1856 15.6611 30.4152 14.4346C30.4972 14.0005 30.9235 13.6821 31.4236 13.6821H33.3626C33.3626 13.6821 33.3954 13.6966 33.3954 13.7147L33.252 14.4817C33.0634 15.4694 33.5922 15.9651 34.8384 15.9651C36.0846 15.9651 36.8512 15.4802 37.0357 14.507L37.1136 14.0837C37.2325 13.4542 36.9086 12.9694 36.1461 12.6257L33.5102 11.4028C32.0549 10.6973 31.4646 9.63722 31.7311 8.22621L31.8172 7.77758C32.0467 6.56918 32.6084 5.6466 33.502 5.00983C34.3957 4.37307 35.6009 4.05469 37.1177 4.05469C38.6345 4.05469 39.7167 4.37307 40.3726 5.00983C41.0285 5.6466 41.2417 6.56918 41.0121 7.77758L40.8973 8.38902C40.8973 8.38902 40.8809 8.41073 40.8645 8.41073H38.864C38.4541 8.41073 38.1425 8.08511 38.2081 7.72693C38.3065 7.20956 38.245 6.82605 38.0196 6.5728C37.7982 6.32316 37.3596 6.19653 36.7118 6.19653C36.0641 6.19653 35.5804 6.31954 35.2648 6.56194C34.9491 6.80435 34.74 7.18423 34.6458 7.70522L34.5802 8.05978C34.449 8.75082 34.7605 9.25371 35.5148 9.56486L38.0646 10.8131H38.0523Z" fill="black"/>
<path d="M41.3477 18.1579L44.3936 1.99277C44.5124 1.36325 45.1314 0.900146 45.857 0.900146H47.4681L46.5129 5.96169C46.7425 5.59989 47.1442 5.2598 47.7182 4.9378C48.2921 4.6158 48.9849 4.45661 49.7966 4.45661C50.9321 4.45661 51.7643 4.75329 52.2931 5.35025C52.8219 5.94722 52.99 6.73955 52.8055 7.72726L51.0018 17.3004C50.9075 17.7961 50.4238 18.1579 49.8539 18.1579H47.9477L49.817 8.24463C50.0138 7.1918 49.5096 6.66719 48.3044 6.66719C47.7633 6.66719 47.2836 6.80468 46.8614 7.07964C46.4392 7.35461 46.185 7.7345 46.0907 8.22292L44.2173 18.1579H41.3518H41.3477Z" fill="black"/>
<path d="M64.3365 14.4513C64.107 15.6742 63.5003 16.6293 62.5246 17.3131C61.5489 17.9969 60.3109 18.337 58.8147 18.337C57.3184 18.337 56.1869 17.9969 55.4778 17.3131C54.7686 16.6293 54.5308 15.6778 54.7604 14.4513L55.9533 8.11983C56.1828 6.89696 56.7814 5.94181 57.7488 5.25802C58.7163 4.57422 59.9584 4.23413 61.4711 4.23413C62.9837 4.23413 64.0742 4.57784 64.7916 5.26887C65.509 5.9599 65.7549 6.90781 65.5254 8.11622L64.3324 14.4477L64.3365 14.4513ZM62.664 8.11983C62.869 7.03806 62.3319 6.49536 61.0488 6.49536C59.7657 6.49536 58.9991 7.03806 58.7942 8.11983L57.6012 14.4513C57.3963 15.5331 57.9456 16.0758 59.241 16.0758C60.5364 16.0758 61.262 15.5331 61.467 14.4513L62.6599 8.11983H62.664Z" fill="black"/>
<path d="M76.1609 13.7329C75.956 14.8183 75.4476 15.6613 74.6319 16.2655C73.8161 16.8697 72.8363 17.17 71.6967 17.17C70.5571 17.17 69.7044 16.8987 69.3067 16.356L68.6344 19.9233C68.5279 20.4877 67.9744 20.9001 67.3267 20.9001H65.6993L68.6795 5.10406C68.7943 4.49986 69.3846 4.05847 70.0774 4.05847H71.6311L71.4261 5.14386C71.6516 4.85804 72.0287 4.59031 72.5494 4.34067C73.0741 4.09103 73.689 3.96802 74.3982 3.96802C75.5419 3.96802 76.3741 4.26107 76.8947 4.8508C77.4153 5.43691 77.5793 6.23649 77.3907 7.2459L76.1691 13.7329H76.1609ZM69.8151 13.6425C69.729 14.0947 69.8356 14.4493 70.1348 14.7062C70.4341 14.963 70.8522 15.0897 71.3851 15.0897C72.5453 15.0897 73.2176 14.594 73.4061 13.5991L74.5417 7.58599C74.7302 6.59105 74.2424 6.09539 73.0823 6.09539C72.5453 6.09539 72.0779 6.22201 71.6844 6.47889C71.2909 6.73577 71.049 7.09033 70.9629 7.54258L69.811 13.6461L69.8151 13.6425Z" fill="black"/>
<path d="M82.905 0.900146H84.6431L81.5932 17.0689C81.4743 17.6984 80.8594 18.1579 80.1338 18.1579H78.5186L81.5891 1.88062C81.6956 1.3126 82.2532 0.900146 82.9009 0.900146L82.905 0.900146Z" fill="white"/>
<path d="M94.5143 14.2718C94.2847 15.4947 93.678 16.4499 92.7023 17.1337C91.7267 17.8175 90.4887 18.1575 88.9924 18.1575C87.4961 18.1575 86.3647 17.8175 85.6555 17.1337C84.9463 16.4499 84.7085 15.4983 84.9381 14.2718L86.131 7.94039C86.3606 6.71751 86.9591 5.76237 87.9265 5.07857C88.894 4.39478 90.1361 4.05469 91.6488 4.05469C93.1615 4.05469 94.2519 4.39839 94.9693 5.08943C95.6867 5.78046 95.9327 6.72837 95.7031 7.93677L94.5102 14.2682L94.5143 14.2718ZM92.8417 7.94039C93.0467 6.85862 92.5097 6.31592 91.2266 6.31592C89.9434 6.31592 89.1769 6.85862 88.9719 7.94039L87.779 14.2718C87.574 15.3536 88.1233 15.8963 89.4187 15.8963C90.7141 15.8963 91.4397 15.3536 91.6447 14.2718L92.8376 7.94039H92.8417Z" fill="white"/>
<path d="M101.005 9.83024C101.05 10.7709 101.071 11.708 101.063 12.645C101.054 13.5785 101.034 14.2803 101.001 14.7507L100.981 15.4562C101.534 13.7992 102.251 11.925 103.133 9.83024L105.133 5.02557C105.375 4.44308 106.002 4.05957 106.703 4.05957H108.474L102.346 18.1624H98.6234L97.7872 4.05957H100.78L101.005 9.83024Z" fill="white"/>
<path d="M111.283 11.8225L110.811 14.3189C110.61 15.3862 111.168 15.918 112.484 15.918C113.8 15.918 114.558 15.3826 114.759 14.3189C114.865 13.7617 115.411 13.3529 116.05 13.3529H117.78L117.608 14.2718C117.378 15.4947 116.772 16.4499 115.796 17.1337C114.82 17.8175 113.574 18.1575 112.061 18.1575C110.549 18.1575 109.434 17.8175 108.725 17.1337C108.015 16.4499 107.774 15.4983 108.007 14.2718L109.2 7.94039C109.43 6.71751 110.028 5.76237 110.996 5.07857C111.963 4.39478 113.205 4.05469 114.718 4.05469C116.231 4.05469 117.35 4.39839 118.067 5.08943C118.784 5.78046 119.03 6.72837 118.801 7.93677L118.071 11.7971H117.965V11.8225H111.283ZM116.001 7.88974C116.202 6.82244 115.636 6.29059 114.3 6.29059C112.963 6.29059 112.225 6.82605 112.025 7.88974L111.66 9.82174H115.636L116.001 7.88974Z" fill="white"/>
<path d="M128.113 6.62361C127.83 6.54401 127.453 6.5006 126.985 6.5006C126.35 6.5006 125.788 6.69235 125.296 7.07224C124.805 7.45574 124.497 7.96226 124.378 8.5954L122.804 16.9457C122.673 17.644 121.988 18.1577 121.185 18.1577H119.607L122.271 4.04038H125.1L124.747 5.9181C124.915 5.42968 125.288 4.98467 125.866 4.57584C126.448 4.17062 127.166 3.96802 128.027 3.96802C128.305 3.96802 128.502 3.97525 128.609 3.99334L128.113 6.62723V6.62361Z" fill="white"/>
<path fill-rule="evenodd" clip-rule="evenodd" d="M0 0.900391H5.99331L6.99356 3.21227H2.87777L2.38994 2.06538H0.491927L0 0.900391Z" fill="black"/>
<path fill-rule="evenodd" clip-rule="evenodd" d="M3.00879 4.06985L24.6741 4.05176L23.2065 7.53948H8.50607L8.9898 8.67914H22.7269L20.1811 14.7175H12.9211L11.8594 12.2573H17.1148L17.5944 11.1177H5.97265L3.00879 4.06985Z" fill="black"/>
<path fill-rule="evenodd" clip-rule="evenodd" d="M6.75586 12.4304L9.1622 18.1577L18.9802 18.1541L20.0215 15.6938H12.2408L10.8348 12.4304H6.75586Z" fill="white"/>
<path fill-rule="evenodd" clip-rule="evenodd" d="M10.2462 18.9001C10.9349 18.9001 11.4924 19.3922 11.4924 20C11.4924 20.6078 10.9349 21.0999 10.2462 21.0999C9.55752 21.0999 9 20.6078 9 20C9 19.3922 9.55752 18.9001 10.2462 18.9001Z" fill="black"/>
<path fill-rule="evenodd" clip-rule="evenodd" d="M17.6915 18.9001C18.3802 18.9001 18.9377 19.3922 18.9377 20C18.9377 20.6078 18.3802 21.0999 17.6915 21.0999C17.0028 21.0999 16.4453 20.6078 16.4453 20C16.4453 19.3922 17.0028 18.9001 17.6915 18.9001Z" fill="black"/>
</svg>
