<svg width="20" height="20" viewBox="0 0 20 20" fill="none" xmlns="http://www.w3.org/2000/svg">
<path d="M10 1.875C5.51667 1.875 1.875 5.51667 1.875 10C1.875 14.4833 5.51667 18.125 10 18.125C14.4833 18.125 18.125 14.4833 18.125 10C18.125 5.51667 14.4833 1.875 10 1.875ZM10 16.875C9.08333 16.875 8.1 15.425 7.60833 13.125H12.3917C11.9 15.425 10.9167 16.875 10 16.875ZM7.4 11.875C7.33333 11.2833 7.29167 10.6583 7.29167 10C7.29167 9.34167 7.33333 8.71667 7.4 8.125H12.5917C12.6583 8.71667 12.7 9.34167 12.7 10C12.7 10.6583 12.6583 11.2833 12.5917 11.875H7.4ZM3.125 10C3.125 9.35 3.225 8.725 3.39167 8.125H6.14167C6.075 8.725 6.04167 9.35 6.04167 10C6.04167 10.65 6.075 11.275 6.14167 11.875H3.39167C3.225 11.275 3.125 10.65 3.125 10ZM10 3.125C10.9167 3.125 11.9 4.575 12.3917 6.875H7.60833C8.1 4.575 9.08333 3.125 10 3.125ZM13.8583 8.125H16.6083C16.775 8.725 16.875 9.35 16.875 10C16.875 10.65 16.775 11.275 16.6083 11.875H13.8583C13.925 11.275 13.9583 10.65 13.9583 10C13.9583 9.35 13.925 8.725 13.8583 8.125ZM16.1167 6.875H13.675C13.425 5.56667 13.0167 4.45 12.4917 3.6C14.0667 4.21667 15.35 5.38333 16.1167 6.875ZM7.50833 3.6C6.98333 4.45 6.575 5.56667 6.325 6.875H3.88333C4.65 5.38333 5.93333 4.21667 7.50833 3.6ZM3.88333 13.125H6.325C6.575 14.4333 6.98333 15.55 7.50833 16.4C5.94167 15.7833 4.65 14.6167 3.88333 13.125ZM12.4917 16.4C13.0167 15.55 13.425 14.4333 13.675 13.125H16.1167C15.35 14.6167 14.0667 15.7833 12.4917 16.4Z" fill="#666666"/>
</svg>
