<svg width="20" height="20" viewBox="0 0 20 20" fill="none" xmlns="http://www.w3.org/2000/svg">
<path d="M14.1654 7.5V6.66667C14.1654 5.5616 13.7264 4.50179 12.945 3.72039C12.1636 2.93899 11.1038 2.5 9.9987 2.5C8.89363 2.5 7.83382 2.93899 7.05242 3.72039C6.27102 4.50179 5.83203 5.5616 5.83203 6.66667V7.5C5.16921 7.50073 4.53375 7.76435 4.06507 8.23304C3.59639 8.70172 3.33276 9.33718 3.33203 10V15C3.33276 15.6628 3.59639 16.2983 4.06507 16.767C4.53375 17.2356 5.16921 17.4993 5.83203 17.5H14.1654C14.8282 17.4993 15.4636 17.2356 15.9323 16.767C16.401 16.2983 16.6646 15.6628 16.6654 15V10C16.6646 9.33718 16.401 8.70172 15.9323 8.23304C15.4636 7.76435 14.8282 7.50073 14.1654 7.5ZM7.4987 6.66667C7.4987 6.00363 7.76209 5.36774 8.23093 4.8989C8.69977 4.43006 9.33566 4.16667 9.9987 4.16667C10.6617 4.16667 11.2976 4.43006 11.7665 4.8989C12.2353 5.36774 12.4987 6.00363 12.4987 6.66667V7.5H7.4987V6.66667ZM14.9987 15C14.9984 15.2209 14.9106 15.4327 14.7543 15.589C14.5981 15.7452 14.3863 15.8331 14.1654 15.8333H5.83203C5.6111 15.8331 5.39928 15.7452 5.24306 15.589C5.08683 15.4327 4.99895 15.2209 4.9987 15V10C4.99895 9.77906 5.08683 9.56725 5.24306 9.41102C5.39928 9.2548 5.6111 9.16692 5.83203 9.16667H14.1654C14.3863 9.16692 14.5981 9.2548 14.7543 9.41102C14.9106 9.56725 14.9984 9.77906 14.9987 10V15Z" fill="#666666"/>
<path d="M10.0001 10.834C9.74734 10.833 9.50021 10.909 9.29163 11.0518C9.08305 11.1947 8.92288 11.3977 8.83243 11.6337C8.74198 11.8698 8.72553 12.1278 8.78525 12.3735C8.84498 12.6191 8.97807 12.8408 9.16681 13.009V13.7507C9.16681 13.9717 9.25461 14.1836 9.41089 14.3399C9.56717 14.4962 9.77913 14.584 10.0001 14.584C10.2212 14.584 10.4331 14.4962 10.5894 14.3399C10.7457 14.1836 10.8335 13.9717 10.8335 13.7507V13.009C11.0222 12.8408 11.1553 12.6191 11.215 12.3735C11.2748 12.1278 11.2583 11.8698 11.1679 11.6337C11.0774 11.3977 10.9172 11.1947 10.7087 11.0518C10.5001 10.909 10.253 10.833 10.0001 10.834Z" fill="#666666"/>
</svg>
