<svg width="25" height="24" viewBox="0 0 25 24" fill="none" xmlns="http://www.w3.org/2000/svg">
    <path
        d="M14.4206 20.8905C18.6036 20.6125 21.9356 17.2332 22.2098 12.9909C22.2634 12.1607 22.3037 10.8303 22.25 10.0001C21.9758 5.75771 21.2505 2 17.2505 1.99989C15.8234 1.90503 10.7505 2 7.69544 2.00008C3.2505 2 2.29024 6.50005 2.2506 9.00005C2.23993 9.6043 2.23659 12.1607 2.29024 12.9909C2.3901 14.536 3.07344 15.9666 3.87791 17.1746C4.34501 18.0203 4.03675 19.0758 3.55022 19.9978C3.19941 20.6626 3.02401 20.995 3.16485 21.2351C3.30568 21.4752 3.62026 21.4829 4.24943 21.4982C5.49367 21.5285 6.33269 21.1757 6.99868 20.6846C7.37641 20.4061 7.56527 20.2668 7.69544 20.2508C7.82561 20.2348 8.08177 20.3403 8.59401 20.5513C9.05441 20.7409 9.58897 20.8579 10.0794 20.8905C11.5036 20.9852 12.9935 20.9854 14.4206 20.8905Z"
        stroke="#404040" stroke-width="1.5" stroke-linejoin="round" />
    <path d="M12.2453 12H12.2543M16.2408 12H16.2498M8.24981 12H8.25878" stroke="#404040" stroke-width="2"
        stroke-linecap="round" stroke-linejoin="round" />
</svg>