<svg width="25" height="22" viewBox="0 0 25 22" fill="none" xmlns="http://www.w3.org/2000/svg">
    <path
        d="M22.7991 2.37504C21.665 1.2677 20.0983 0.714264 18.0981 0.714264C17.5445 0.714264 16.9796 0.81024 16.4038 1.0021C15.8278 1.1941 15.292 1.45313 14.7969 1.77901C14.3012 2.1048 13.8751 2.41074 13.5177 2.69637C13.1608 2.98209 12.8214 3.28574 12.5 3.60706C12.1785 3.28574 11.8392 2.98209 11.4822 2.69637C11.1249 2.41074 10.6987 2.10498 10.203 1.77901C9.70749 1.45299 9.17174 1.19415 8.59588 1.0021C8.02007 0.810287 7.45524 0.714264 6.90171 0.714264C4.90164 0.714264 3.33477 1.26784 2.20088 2.37504C1.06699 3.48215 0.5 5.01777 0.5 6.98205C0.5 7.58028 0.605077 8.19657 0.814808 8.83018C1.02454 9.46411 1.26354 10.0044 1.53135 10.4507C1.79911 10.897 2.10275 11.3322 2.44204 11.7564C2.78134 12.1805 3.0293 12.4728 3.18537 12.6335C3.34158 12.7942 3.46438 12.9104 3.55365 12.9819L11.9107 21.0444C12.0714 21.2051 12.2678 21.2857 12.5 21.2857C12.7321 21.2857 12.9286 21.2051 13.0893 21.0444L21.433 13.0084C23.4777 10.9641 24.5 8.95514 24.5 6.98186C24.5 5.01744 23.9331 3.48196 22.7991 2.37504ZM20.2678 11.7497L12.5 19.2362L4.71893 11.7362C3.04924 10.0669 2.21453 8.48188 2.21453 6.98186C2.21453 6.25875 2.31051 5.62027 2.50237 5.06683C2.69437 4.5133 2.93989 4.07344 3.23899 3.74756C3.53813 3.42159 3.90191 3.15617 4.33047 2.95066C4.75927 2.74534 5.17887 2.60691 5.58951 2.53552C6.00016 2.46421 6.43759 2.42852 6.90194 2.42852C7.36616 2.42852 7.86626 2.54222 8.40196 2.76997C8.93757 2.99762 9.43087 3.28334 9.88171 3.62705C10.3327 3.97099 10.7188 4.29236 11.0404 4.59136C11.3617 4.89064 11.6295 5.16502 11.8438 5.41504C12.0044 5.61154 12.2234 5.70977 12.5 5.70977C12.7768 5.70977 12.9955 5.61154 13.1563 5.41504C13.3706 5.16502 13.6385 4.8905 13.9599 4.59136C14.2813 4.29236 14.6675 3.97113 15.1183 3.62705C15.5692 3.28334 16.0625 2.99762 16.5984 2.76997C17.1339 2.54227 17.6342 2.42852 18.0984 2.42852C18.5627 2.42852 19 2.46421 19.4108 2.53552C19.8216 2.60687 20.2412 2.74534 20.6699 2.95066C21.0985 3.15613 21.4622 3.42173 21.7613 3.74756C22.0604 4.07344 22.306 4.5133 22.498 5.06683C22.6897 5.62027 22.7857 6.25875 22.7857 6.98186C22.7856 8.48188 21.9464 10.0713 20.2678 11.7497Z"
        fill="#404040" />
</svg>