<svg width="14" height="16" viewBox="0 0 14 16" fill="none" xmlns="http://www.w3.org/2000/svg">
    <path
        d="M8.66665 6.00004C8.66665 6.92052 7.92045 7.66671 6.99998 7.66671C6.07951 7.66671 5.33331 6.92052 5.33331 6.00004C5.33331 5.07957 6.07951 4.33337 6.99998 4.33337C7.92045 4.33337 8.66665 5.07957 8.66665 6.00004Z"
        stroke="#EF4B61" stroke-width="1.5" />
    <path
        d="M11.1481 11.3334C12.0778 12.659 12.5225 13.365 12.2576 13.9333C12.2311 13.9903 12.2 14.0453 12.1646 14.0979C11.7816 14.6667 10.7917 14.6667 8.81184 14.6667H5.18814C3.20833 14.6667 2.21842 14.6667 1.8354 14.0979C1.80002 14.0453 1.76892 13.9903 1.74235 13.9333C1.47745 13.365 1.92216 12.659 2.85184 11.3334"
        stroke="#EF4B61" stroke-width="1.5" stroke-linecap="round" stroke-linejoin="round" />
    <path
        d="M7.83825 11.6624C7.61339 11.879 7.31286 12 7.00008 12C6.68731 12 6.38677 11.879 6.16192 11.6624C4.10285 9.66723 1.34344 7.4384 2.68912 4.20253C3.41672 2.45292 5.16328 1.33337 7.00008 1.33337C8.83689 1.33337 10.5834 2.45292 11.311 4.20253C12.655 7.43432 9.9024 9.67411 7.83825 11.6624Z"
        stroke="#EF4B61" stroke-width="1.5" />
</svg>