<svg width="20" height="20" viewBox="0 0 20 20" fill="none" xmlns="http://www.w3.org/2000/svg">
<path d="M17.6058 9.26641C18.2122 8.24841 18.5912 7.1113 18.7169 5.93307C18.7169 4.6755 18.2173 3.46944 17.3281 2.58021C16.4389 1.69097 15.2328 1.19141 13.9752 1.19141C12.7177 1.19141 11.5116 1.69097 10.6224 2.58021C9.73312 3.46944 9.23356 4.6755 9.23356 5.93307C9.29105 6.72731 9.50237 7.50281 9.85578 8.21641H4.82245C4.10085 8.21746 3.40438 8.48148 2.86341 8.95904C2.32245 9.4366 1.97409 10.095 1.88356 10.8109L1.28911 15.5553C1.23627 15.9724 1.27283 16.3959 1.39638 16.7977C1.51992 17.1995 1.72761 17.5705 2.00563 17.8858C2.28365 18.2011 2.62562 18.4537 3.00881 18.6266C3.392 18.7995 3.80761 18.8888 4.228 18.8886H15.4502C15.8706 18.8888 16.2862 18.7995 16.6694 18.6266C17.0526 18.4537 17.3946 18.2011 17.6726 17.8858C17.9506 17.5705 18.1583 17.1995 18.2818 16.7977C18.4054 16.3959 18.442 15.9724 18.3891 15.5553L17.6058 9.26641ZM16.7891 17.0997C16.6219 17.2883 16.4166 17.4392 16.1868 17.5427C15.9569 17.6461 15.7078 17.6996 15.4558 17.6997H4.23356C3.98156 17.6994 3.73253 17.6454 3.50297 17.5415C3.27342 17.4375 3.06858 17.286 2.90205 17.0968C2.73551 16.9077 2.61109 16.6853 2.53702 16.4445C2.46296 16.2036 2.44095 15.9498 2.47245 15.6997L3.06689 10.9609C3.12222 10.5312 3.33202 10.1364 3.65712 9.85019C3.98222 9.56394 4.40039 9.4058 4.83356 9.4053H10.4502C11.0058 10.4109 11.6336 11.4442 12.2558 12.3664H4.51134V13.5553H13.9891C14.2843 13.5575 14.5753 13.4848 14.8347 13.3439C15.0941 13.203 15.3136 12.9986 15.4724 12.7497C15.8502 12.1942 16.2447 11.5942 16.628 10.9775L17.2224 15.7053C17.2527 15.9551 17.2297 16.2086 17.155 16.4489C17.0804 16.6892 16.9556 16.911 16.7891 17.0997ZM14.4836 12.0997C14.436 12.1879 14.3654 12.2616 14.2793 12.313C14.1932 12.3643 14.0949 12.3914 13.9947 12.3914C13.8944 12.3914 13.7961 12.3643 13.71 12.313C13.624 12.2616 13.5534 12.1879 13.5058 12.0997C11.5669 9.26641 10.4502 7.02752 10.4502 5.96085C10.4502 5.01786 10.8248 4.11349 11.4916 3.44669C12.1584 2.7799 13.0628 2.4053 14.0058 2.4053C14.9488 2.4053 15.8531 2.7799 16.5199 3.44669C17.1867 4.11349 17.5613 5.01786 17.5613 5.96085C17.5447 7.00529 16.4336 9.24418 14.478 12.0997H14.4836Z" fill="#666666"/>
<path d="M15.4557 4.38292C15.2636 4.18984 15.035 4.03687 14.7832 3.93292C14.5314 3.82896 14.2615 3.77609 13.9891 3.77737C13.4387 3.77737 12.911 3.99598 12.5218 4.38512C12.1327 4.77426 11.9141 5.30204 11.9141 5.85237C11.9141 6.40269 12.1327 6.93047 12.5218 7.31961C12.911 7.70875 13.4387 7.92737 13.9891 7.92737C14.3993 7.92792 14.8005 7.80668 15.1418 7.57902C15.4831 7.35136 15.7491 7.02752 15.9062 6.64853C16.0632 6.26953 16.1043 5.85245 16.0241 5.45011C15.9439 5.04778 15.7461 4.67829 15.4557 4.38848V4.38292ZM14.6168 6.47737C14.5346 6.5602 14.4368 6.62593 14.3291 6.67074C14.2213 6.71556 14.1058 6.73858 13.9891 6.73848C13.8135 6.73818 13.6419 6.68588 13.496 6.58819C13.3501 6.4905 13.2364 6.35178 13.1693 6.18955C13.1021 6.02731 13.0845 5.84882 13.1187 5.67659C13.1529 5.50437 13.2373 5.34612 13.3613 5.22181C13.5304 5.0686 13.7519 4.98628 13.98 4.9919C14.2081 4.99752 14.4253 5.09064 14.5867 5.25198C14.748 5.41333 14.8411 5.63054 14.8468 5.85864C14.8524 6.08675 14.77 6.30828 14.6168 6.47737Z" fill="#666666"/>
</svg>
