<svg width="20" height="20" viewBox="0 0 20 20" fill="none" xmlns="http://www.w3.org/2000/svg">
<path fill-rule="evenodd" clip-rule="evenodd" d="M16.875 3.12695V16.8782C16.875 17.6188 16.4388 18.2901 15.7619 18.5913C15.085 18.8926 14.2938 18.7663 13.7438 18.2701L10.4187 15.2701C10.1806 15.0557 9.81938 15.0557 9.58125 15.2701L6.25625 18.2701C5.70625 18.7663 4.915 18.8926 4.23812 18.5913C3.56125 18.2901 3.125 17.6188 3.125 16.8782V3.12695C3.125 2.62945 3.3225 2.15258 3.67438 1.80133C4.02563 1.44945 4.5025 1.25195 5 1.25195H15C15.4975 1.25195 15.9744 1.44945 16.3256 1.80133C16.6775 2.15258 16.875 2.62945 16.875 3.12695ZM15.625 3.12695C15.625 2.96133 15.5594 2.80195 15.4419 2.68508C15.325 2.56758 15.1656 2.50195 15 2.50195H5C4.83438 2.50195 4.675 2.56758 4.55812 2.68508C4.44062 2.80195 4.375 2.96133 4.375 3.12695V16.8782C4.375 17.1251 4.52063 17.3488 4.74625 17.4494C4.97188 17.5494 5.23562 17.5076 5.41875 17.3419L8.74375 14.342C9.4575 13.6982 10.5425 13.6982 11.2562 14.342L14.5813 17.3419C14.7644 17.5076 15.0281 17.5494 15.2537 17.4494C15.4794 17.3488 15.625 17.1251 15.625 16.8782V3.12695ZM10 5.17945C11.0881 4.2007 12.6875 4.32757 13.5506 5.02507C14.5413 5.82507 14.6806 7.42133 13.6944 9.02196C13.0919 10.0557 11.5762 11.1126 10.2962 11.802C10.1112 11.902 9.88875 11.902 9.70375 11.802C8.42375 11.1126 6.90813 10.0557 6.30563 9.02196C5.31938 7.42133 5.45938 5.82507 6.44938 5.02507C7.3125 4.32757 8.91187 4.2007 10 5.17945ZM9.46875 6.4782C8.90875 5.5732 7.795 5.54507 7.235 5.99757C6.98375 6.20007 6.875 6.51133 6.875 6.86633C6.875 7.3257 7.04875 7.84695 7.37375 8.37132C7.37688 8.37695 7.38 8.38257 7.38312 8.38757C7.84437 9.18632 8.98063 9.96445 10 10.5382C11.0188 9.96445 12.1556 9.18632 12.6169 8.38757C12.62 8.38257 12.6231 8.37695 12.6262 8.37132C12.9513 7.84695 13.125 7.3257 13.125 6.86633C13.125 6.51133 13.0162 6.20007 12.765 5.99757C12.205 5.54507 11.0912 5.5732 10.5312 6.4782C10.4175 6.66195 10.2162 6.77382 10 6.77382C9.78375 6.77382 9.5825 6.66195 9.46875 6.4782Z" fill="#666666"/>
</svg>
