<svg width="20" height="20" viewBox="0 0 20 20" fill="none" xmlns="http://www.w3.org/2000/svg">
<path d="M17.8756 11.559L16.6673 9.75065V7.50065C16.6673 5.73254 15.9649 4.03685 14.7147 2.78661C13.4644 1.53636 11.7688 0.833984 10.0006 0.833984C8.23253 0.833984 6.53684 1.53636 5.2866 2.78661C4.03635 4.03685 3.33398 5.73254 3.33398 7.50065V9.75065L2.12564 11.559C1.84949 11.9734 1.69104 12.455 1.66721 12.9524C1.64338 13.4498 1.75507 13.9444 1.99034 14.3833C2.22562 14.8221 2.57566 15.1889 3.0031 15.4444C3.43053 15.6999 3.91933 15.8346 4.41731 15.834H5.91731C6.10857 16.7759 6.61958 17.6227 7.36376 18.231C8.10794 18.8392 9.03951 19.1715 10.0006 19.1715C10.9618 19.1715 11.8933 18.8392 12.6375 18.231C13.3817 17.6227 13.8927 16.7759 14.084 15.834H15.584C16.082 15.8346 16.5708 15.6999 16.9982 15.4444C17.4256 15.1889 17.7757 14.8221 18.0109 14.3833C18.2462 13.9444 18.3579 13.4498 18.3341 12.9524C18.3102 12.455 18.1518 11.9734 17.8756 11.559ZM10.0006 17.5007C9.48343 17.5009 8.97887 17.3408 8.55649 17.0423C8.13411 16.7438 7.81471 16.3216 7.64231 15.834H12.359C12.1866 16.3216 11.8672 16.7438 11.4448 17.0423C11.0224 17.3408 10.5179 17.5009 10.0006 17.5007ZM15.584 14.1673H4.41731C4.27504 14.1673 4.13417 14.1393 4.00274 14.0849C3.8713 14.0304 3.75187 13.9506 3.65128 13.85C3.55068 13.7494 3.47088 13.63 3.41644 13.4986C3.362 13.3671 3.33398 13.2262 3.33398 13.084C3.34049 12.8764 3.40391 12.6746 3.51731 12.5007L4.85898 10.484C4.95492 10.3413 5.0044 10.1725 5.00064 10.0007V7.50065C5.00064 6.17457 5.52743 4.9028 6.46511 3.96512C7.40279 3.02744 8.67456 2.50065 10.0006 2.50065C11.3267 2.50065 12.5985 3.02744 13.5362 3.96512C14.4739 4.9028 15.0006 6.17457 15.0006 7.50065V10.0007C15.0019 10.164 15.0512 10.3234 15.1423 10.459L16.484 12.5007C16.588 12.6635 16.6467 12.8511 16.6538 13.0442C16.6609 13.2373 16.6162 13.4288 16.5244 13.5988C16.4326 13.7688 16.297 13.9112 16.1316 14.0112C15.9663 14.1111 15.7772 14.165 15.584 14.1673Z" fill="#666666"/>
</svg>
