<svg width="20" height="20" viewBox="0 0 20 20" fill="none" xmlns="http://www.w3.org/2000/svg">
<g clip-path="url(#clip0_2541_39779)">
<path d="M14.6154 19.9982H3.84615C1.72303 19.9957 0.00254808 18.2752 0 16.152V9.22897C0.00254808 7.10584 1.72303 5.38536 3.84615 5.38281H14.6154C16.7385 5.38536 18.459 7.10584 18.4615 9.22897V10.7674C18.4615 11.1923 18.1172 11.5367 17.6923 11.5367C17.2675 11.5367 16.9231 11.1923 16.9231 10.7674V9.22897C16.9231 7.95445 15.8899 6.92127 14.6154 6.92127H3.84615C2.57163 6.92127 1.53846 7.95445 1.53846 9.22897V16.152C1.53846 17.4266 2.57163 18.4597 3.84615 18.4597H14.6154C15.8899 18.4597 16.9231 17.4266 16.9231 16.152V15.3828C16.9231 14.958 17.2675 14.6136 17.6923 14.6136C18.1172 14.6136 18.4615 14.958 18.4615 15.3828V16.152C18.459 18.2751 16.7385 19.9957 14.6154 19.9982Z" fill="#666666"/>
<path d="M19.2317 16.1519H15.3855C13.6862 16.1519 12.3086 14.7743 12.3086 13.075C12.3086 11.3756 13.6862 9.99805 15.3855 9.99805H19.2317C19.6565 9.99805 20.0009 10.3424 20.0009 10.7673V15.3827C20.0009 15.8075 19.6565 16.1519 19.2317 16.1519ZM15.3855 11.5365C14.5359 11.5365 13.8471 12.2253 13.8471 13.075C13.8471 13.9246 14.5359 14.6134 15.3855 14.6134H18.4624V11.5365H15.3855Z" fill="#666666"/>
<path d="M15.386 6.92123H3.8475C3.42264 6.92132 3.07822 6.577 3.07813 6.15214C3.07808 5.90584 3.19596 5.67445 3.39519 5.52969L10.386 0.444304C11.4163 -0.305937 12.8597 -0.0789174 13.6099 0.951371C13.6852 1.05483 13.7519 1.1644 13.809 1.27892L16.0783 5.80815C16.2682 6.1882 16.114 6.65022 15.734 6.84012C15.626 6.89406 15.5067 6.92185 15.386 6.92123ZM6.21288 5.38277H14.1413L12.4329 1.96661C12.2417 1.58719 11.7792 1.43459 11.3998 1.6257C11.3627 1.6444 11.3272 1.66603 11.2937 1.69046L6.21288 5.38277Z" fill="#666666"/>
</g>
<defs>
<clipPath id="clip0_2541_39779">
<rect width="20" height="20" fill="white"/>
</clipPath>
</defs>
</svg>
