<svg width="20" height="20" viewBox="0 0 20 20" fill="none" xmlns="http://www.w3.org/2000/svg">
<path d="M5.625 5.625C5.625 5.45924 5.69085 5.30027 5.80806 5.18306C5.92527 5.06585 6.08424 5 6.25 5H8.75C8.91576 5 9.07473 5.06585 9.19194 5.18306C9.30915 5.30027 9.375 5.45924 9.375 5.625C9.375 5.79076 9.30915 5.94973 9.19194 6.06694C9.07473 6.18415 8.91576 6.25 8.75 6.25H6.25C6.08424 6.25 5.92527 6.18415 5.80806 6.06694C5.69085 5.94973 5.625 5.79076 5.625 5.625ZM10.625 7.5H6.25C6.08424 7.5 5.92527 7.56585 5.80806 7.68306C5.69085 7.80027 5.625 7.95924 5.625 8.125C5.625 8.29076 5.69085 8.44973 5.80806 8.56694C5.92527 8.68415 6.08424 8.75 6.25 8.75H10.625C10.7908 8.75 10.9497 8.68415 11.0669 8.56694C11.1842 8.44973 11.25 8.29076 11.25 8.125C11.25 7.95924 11.1842 7.80027 11.0669 7.68306C10.9497 7.56585 10.7908 7.5 10.625 7.5ZM10.625 10H6.25C6.08424 10 5.92527 10.0658 5.80806 10.1831C5.69085 10.3003 5.625 10.4592 5.625 10.625C5.625 10.7908 5.69085 10.9497 5.80806 11.0669C5.92527 11.1842 6.08424 11.25 6.25 11.25H10.625C10.7908 11.25 10.9497 11.1842 11.0669 11.0669C11.1842 10.9497 11.25 10.7908 11.25 10.625C11.25 10.4592 11.1842 10.3003 11.0669 10.1831C10.9497 10.0658 10.7908 10 10.625 10ZM18.75 5C18.7516 5.60036 18.6086 6.19228 18.3332 6.72573C18.0578 7.25918 17.6579 7.71848 17.1676 8.06482C16.6772 8.41116 16.1106 8.63435 15.5158 8.71554C14.9209 8.79672 14.3153 8.73351 13.75 8.53125V16.875C13.75 17.3723 13.5525 17.8492 13.2008 18.2008C12.8492 18.5525 12.3723 18.75 11.875 18.75H3.75C3.25272 18.75 2.77581 18.5525 2.42417 18.2008C2.07254 17.8492 1.875 17.3723 1.875 16.875V15.625C1.875 15.4592 1.94085 15.3003 2.05806 15.1831C2.17527 15.0658 2.33424 15 2.5 15H3.125V3.75C3.125 3.08696 3.38839 2.45107 3.85723 1.98223C4.32607 1.51339 4.96196 1.25 5.625 1.25H13.125C13.2235 1.25093 13.3204 1.27555 13.4074 1.32178C13.4944 1.36801 13.5691 1.4345 13.625 1.51562C14.1932 1.28974 14.8081 1.20653 15.416 1.27327C16.0238 1.34001 16.606 1.55466 17.1117 1.89846C17.6174 2.24226 18.0311 2.70473 18.3167 3.24541C18.6023 3.78609 18.7511 4.38852 18.75 5ZM3.75 17.5H10.115C10.041 17.2998 10.0021 17.0884 10 16.875V16.25H3.125V16.875C3.125 17.0408 3.19085 17.1997 3.30806 17.3169C3.42527 17.4342 3.58424 17.5 3.75 17.5ZM12.5 7.7875C12.1324 7.46021 11.8331 7.06339 11.6195 6.61993C11.4059 6.17646 11.2822 5.6951 11.2555 5.2036C11.2287 4.7121 11.2995 4.22017 11.4638 3.75616C11.628 3.29215 11.8825 2.86523 12.2125 2.5H5.625C5.29348 2.5 4.97554 2.6317 4.74112 2.86612C4.5067 3.10054 4.375 3.41848 4.375 3.75V15H10.625C10.7908 15 10.9497 15.0658 11.0669 15.1831C11.1842 15.3003 11.25 15.4592 11.25 15.625V16.875C11.25 17.0408 11.3158 17.1997 11.4331 17.3169C11.5503 17.4342 11.7092 17.5 11.875 17.5C12.0408 17.5 12.1997 17.4342 12.3169 17.3169C12.4342 17.1997 12.5 17.0408 12.5 16.875V7.7875ZM17.5 5C17.5 4.50555 17.3534 4.0222 17.0787 3.61107C16.804 3.19995 16.4135 2.87952 15.9567 2.6903C15.4999 2.50108 14.9972 2.45157 14.5123 2.54804C14.0273 2.6445 13.5819 2.8826 13.2322 3.23223C12.8826 3.58186 12.6445 4.02732 12.548 4.51227C12.4516 4.99723 12.5011 5.49989 12.6903 5.95671C12.8795 6.41352 13.2 6.80397 13.6111 7.07867C14.0222 7.35338 14.5055 7.5 15 7.5C15.663 7.5 16.2989 7.23661 16.7678 6.76777C17.2366 6.29893 17.5 5.66304 17.5 5ZM16.25 4.375H15.625C15.625 4.20924 15.5592 4.05027 15.4419 3.93306C15.3247 3.81585 15.1658 3.75 15 3.75C14.8342 3.75 14.6753 3.81585 14.5581 3.93306C14.4408 4.05027 14.375 4.20924 14.375 4.375V5C14.375 5.16576 14.4408 5.32473 14.5581 5.44194C14.6753 5.55915 14.8342 5.625 15 5.625H16.25C16.4158 5.625 16.5747 5.55915 16.6919 5.44194C16.8092 5.32473 16.875 5.16576 16.875 5C16.875 4.83424 16.8092 4.67527 16.6919 4.55806C16.5747 4.44085 16.4158 4.375 16.25 4.375Z" fill="#666666"/>
</svg>
