<svg width="20" height="20" viewBox="0 0 20 20" fill="none" xmlns="http://www.w3.org/2000/svg">
<g clip-path="url(#clip0_2541_39789)">
<path d="M10.0026 19.0586L7.28594 16.3419H4.43594C3.38238 16.3397 2.3726 15.9202 1.62762 15.1752C0.88264 14.4303 0.463139 13.4205 0.460938 12.3669V4.41693C0.460935 3.36192 0.879463 2.35001 1.62468 1.60323C2.3699 0.856446 3.38094 0.435801 4.43594 0.433594H15.5693C16.6243 0.435801 17.6353 0.856446 18.3805 1.60323C19.1257 2.35001 19.5443 3.36192 19.5443 4.41693V12.3669C19.5421 13.4205 19.1226 14.4303 18.3776 15.1752C17.6326 15.9202 16.6228 16.3397 15.5693 16.3419H12.7193L10.0026 19.0586ZM4.43594 2.02526C3.8023 2.02746 3.19525 2.28014 2.7472 2.72819C2.29915 3.17624 2.04647 3.78329 2.04427 4.41693V12.3669C2.04647 13.0006 2.29915 13.6076 2.7472 14.0557C3.19525 14.5037 3.8023 14.7564 4.43594 14.7586H7.94427L10.0026 16.8086L12.0609 14.7586H15.5693C16.2029 14.7564 16.81 14.5037 17.258 14.0557C17.7061 13.6076 17.9587 13.0006 17.9609 12.3669V4.41693C17.9587 3.78329 17.7061 3.17624 17.258 2.72819C16.81 2.28014 16.2029 2.02746 15.5693 2.02526H4.43594Z" fill="#666666"/>
<path d="M11.1901 12.3656H6.02344V10.774H11.1901C11.4619 10.7916 11.7345 10.7532 11.9909 10.6613C12.2473 10.5694 12.4822 10.4259 12.6809 10.2396C12.8796 10.0533 13.0381 9.82824 13.1464 9.5783C13.2547 9.32835 13.3105 9.05885 13.3105 8.78646C13.3105 8.51406 13.2547 8.24456 13.1464 7.99462C13.0381 7.74468 12.8796 7.51961 12.6809 7.33333C12.4822 7.14704 12.2473 7.00351 11.9909 6.9116C11.7345 6.81968 11.4619 6.78135 11.1901 6.79896H7.6151V5.20729H11.1901C11.6747 5.1839 12.1589 5.25915 12.6135 5.42846C13.0681 5.59778 13.4836 5.85764 13.8348 6.1923C14.186 6.52696 14.4656 6.92944 14.6567 7.37536C14.8477 7.82128 14.9462 8.30134 14.9462 8.78646C14.9462 9.27157 14.8477 9.75164 14.6567 10.1976C14.4656 10.6435 14.186 11.046 13.8348 11.3806C13.4836 11.7153 13.0681 11.9751 12.6135 12.1445C12.1589 12.3138 11.6747 12.389 11.1901 12.3656Z" fill="#666666"/>
<path d="M9.43385 8.95026L6.49219 6.00026L9.43385 3.05859L10.5672 4.18359L8.74219 6.00026L10.5672 7.82526L9.43385 8.95026Z" fill="#666666"/>
</g>
<defs>
<clipPath id="clip0_2541_39789">
<rect width="20" height="20" fill="white"/>
</clipPath>
</defs>
</svg>
