<svg width="11" height="11" viewBox="0 0 11 11" fill="none" xmlns="http://www.w3.org/2000/svg">
    <path
        d="M6.34229 1.3291L7.20019 3.05909C7.31718 3.29992 7.62915 3.53091 7.89237 3.57514L9.44732 3.83562C10.4417 4.00272 10.6757 4.73011 9.95914 5.44766L8.75027 6.66651C8.54555 6.87293 8.43343 7.27103 8.4968 7.55608L8.84289 9.06491C9.11586 10.2592 8.48705 10.7212 7.43904 10.097L5.98158 9.2271C5.71836 9.06982 5.28453 9.06982 5.01644 9.2271L3.55897 10.097C2.51584 10.7212 1.88216 10.2543 2.15513 9.06491L2.50121 7.55608C2.56458 7.27103 2.45247 6.87293 2.24774 6.66651L1.03888 5.44766C0.327204 4.73011 0.556304 4.00272 1.55069 3.83562L3.10565 3.57514C3.36399 3.53091 3.67596 3.29992 3.79295 3.05909L4.65085 1.3291C5.1188 0.390387 5.87922 0.390387 6.34229 1.3291Z"
        fill="#FDCB1A" />
</svg>