<svg width="20" height="20" viewBox="0 0 20 20" fill="none" xmlns="http://www.w3.org/2000/svg">
<path fill-rule="evenodd" clip-rule="evenodd" d="M0.625 8.60992C0.625 8.9368 0.8775 9.20867 1.20375 9.23305C1.3675 9.24492 1.5275 9.3143 1.65313 9.4393C1.9275 9.7143 1.9325 10.1587 1.66 10.4312C1.53688 10.5537 1.37875 10.6205 1.2175 10.6312C0.89 10.653 0.635625 10.9249 0.634375 11.253L0.628125 13.7749C0.626875 14.2737 0.824375 14.7518 1.17688 15.1049C1.52938 15.4574 2.00813 15.6555 2.50688 15.6543C5.73438 15.648 14.2919 15.6312 17.5069 15.6249C18.5394 15.6224 19.3756 14.7868 19.3781 13.7543C19.3806 12.6543 19.3844 11.2224 19.3844 11.2224C19.3856 10.8949 19.1325 10.6218 18.8056 10.598C18.6425 10.5855 18.4819 10.5168 18.3569 10.3912C18.0819 10.1168 18.0769 9.67242 18.35 9.3993C18.4725 9.2768 18.6306 9.21055 18.7919 9.1993C19.12 9.17742 19.375 8.90492 19.375 8.57555C19.375 8.57555 19.375 7.27992 19.375 6.24805C19.375 5.75055 19.1775 5.27367 18.8256 4.92242C18.4744 4.57055 17.9975 4.37305 17.5 4.37305C14.2788 4.37305 5.72125 4.37305 2.5 4.37305C2.0025 4.37305 1.52563 4.57055 1.17437 4.92242C0.8225 5.27367 0.625 5.75055 0.625 6.24805V8.60992ZM5.625 5.62305V14.398L2.50438 14.4043C2.33813 14.4049 2.17875 14.3387 2.06125 14.2212C1.94375 14.1037 1.8775 13.9443 1.87813 13.778L1.88313 11.748C2.12375 11.6537 2.34938 11.5093 2.54375 11.3149C3.3025 10.5562 3.30125 9.31992 2.53688 8.55555C2.34188 8.36055 2.11563 8.21492 1.875 8.1193V6.24805C1.875 6.08242 1.94063 5.92305 2.05813 5.80617C2.175 5.68867 2.33438 5.62305 2.5 5.62305H5.625ZM6.875 5.62305H17.5C17.6656 5.62305 17.825 5.68867 17.9419 5.80617C18.0594 5.92305 18.125 6.08242 18.125 6.24805V8.08305C17.885 8.17742 17.66 8.3218 17.4656 8.51555C16.7075 9.2743 16.7088 10.5112 17.4725 11.2749C17.6675 11.4699 17.8931 11.6149 18.1331 11.7105L18.1281 13.7512C18.1275 14.0955 17.8488 14.3743 17.5044 14.3749L6.875 14.3955V5.62305Z" fill="#666666"/>
<path fill-rule="evenodd" clip-rule="evenodd" d="M9.375 11.873H14.375C14.72 11.873 15 11.593 15 11.248C15 10.903 14.72 10.623 14.375 10.623H9.375C9.03 10.623 8.75 10.903 8.75 11.248C8.75 11.593 9.03 11.873 9.375 11.873Z" fill="#666666"/>
<path fill-rule="evenodd" clip-rule="evenodd" d="M9.375 9.37305H14.375C14.72 9.37305 15 9.09305 15 8.74805C15 8.40305 14.72 8.12305 14.375 8.12305H9.375C9.03 8.12305 8.75 8.40305 8.75 8.74805C8.75 9.09305 9.03 9.37305 9.375 9.37305Z" fill="#666666"/>
</svg>
