<svg width="20" height="20" viewBox="0 0 20 20" fill="none" xmlns="http://www.w3.org/2000/svg">
<path d="M9.76663 16.8935L9.76681 16.8936C9.83929 16.9369 9.9208 16.959 10.0026 16.959C10.0804 16.959 10.1584 16.9393 10.2287 16.8993L10.2287 16.8993C10.372 16.8179 10.4609 16.6658 10.4609 16.5007V3.83398C10.4609 2.66198 9.50794 1.70898 8.3359 1.70898H1.66926C1.41632 1.70898 1.21094 1.91385 1.21094 2.1673V15.5007C1.21094 15.7541 1.41632 15.959 1.66926 15.959H8.20897L9.76663 16.8935ZM8.3359 15.0423H2.12758V2.62566H8.3359C9.00221 2.62566 9.54422 3.16771 9.54422 3.83398L9.54426 15.691L8.57209 15.1079C8.50049 15.0648 8.41882 15.0423 8.3359 15.0423Z" fill="#666666" stroke="#666666" stroke-width="0.25"/>
<path d="M9.77516 16.8993L9.77521 16.8993C9.84551 16.9393 9.9235 16.959 10.0013 16.959C10.0832 16.959 10.1646 16.9369 10.237 16.8937L10.2373 16.8935L11.7949 15.959H18.3346C18.5876 15.959 18.793 15.7541 18.793 15.5007V2.16734C18.793 1.9139 18.5876 1.70898 18.3346 1.70898H11.668C10.4959 1.70898 9.54297 2.66194 9.54297 3.83398V16.5007C9.54297 16.6658 9.63193 16.8179 9.77516 16.8993ZM11.432 15.1075L10.4596 15.6909V3.83398C10.4596 3.16767 11.0017 2.62566 11.6679 2.62566H17.8763V15.0423H11.668C11.585 15.0423 11.5036 15.0648 11.4323 15.1073L11.432 15.1075Z" fill="#666666" stroke="#666666" stroke-width="0.25"/>
<path d="M8.66664 5.83203H6.33332C6.14934 5.83203 6 5.98102 6 6.16535C6 6.34969 6.14934 6.49867 6.33332 6.49867H8.66664C8.85063 6.49867 8.99996 6.34969 8.99996 6.16535C8.99996 5.98102 8.85063 5.83203 8.66664 5.83203Z" fill="#666666"/>
<path d="M8.66664 7.16797H6.33332C6.14934 7.16797 6 7.31695 6 7.50129C6 7.68562 6.14934 7.83461 6.33332 7.83461H8.66664C8.85063 7.83461 8.99996 7.68562 8.99996 7.50129C8.99996 7.31695 8.85063 7.16797 8.66664 7.16797Z" fill="#666666"/>
<path d="M3.89983 7.2664L3.23315 6.59972C3.1028 6.46937 2.89214 6.46937 2.76183 6.59972C2.63147 6.73007 2.63147 6.94073 2.76183 7.07104L3.42851 7.73772C3.49351 7.80272 3.57886 7.83538 3.66417 7.83538C3.74952 7.83538 3.83483 7.80272 3.89983 7.73772C4.03015 7.60741 4.03015 7.39675 3.89983 7.2664Z" fill="#666666"/>
<path d="M5.23444 5.92979C5.10409 5.79944 4.89343 5.79944 4.76312 5.92979L3.42979 7.26312C3.29944 7.39347 3.29944 7.60413 3.42979 7.73444C3.49479 7.79944 3.58015 7.8321 3.66546 7.8321C3.75081 7.8321 3.83612 7.79944 3.90112 7.73444L5.23444 6.40112C5.3648 6.27077 5.3648 6.06011 5.23444 5.92979Z" fill="#666666"/>
<path d="M8.66664 10H6.33332C6.14934 10 6 10.149 6 10.3333C6 10.5177 6.14934 10.6666 6.33332 10.6666H8.66664C8.85063 10.6666 8.99996 10.5177 8.99996 10.3333C8.99996 10.149 8.85063 10 8.66664 10Z" fill="#666666"/>
<path d="M8.66664 11.3359H6.33332C6.14934 11.3359 6 11.4849 6 11.6693C6 11.8536 6.14934 12.0026 6.33332 12.0026H8.66664C8.85063 12.0026 8.99996 11.8536 8.99996 11.6693C8.99996 11.4849 8.85063 11.3359 8.66664 11.3359Z" fill="#666666"/>
<path d="M3.89983 11.4285L3.23315 10.7618C3.1028 10.6315 2.89214 10.6315 2.76183 10.7618C2.63147 10.8921 2.63147 11.1028 2.76183 11.2331L3.42851 11.8998C3.49351 11.9648 3.57886 11.9975 3.66417 11.9975C3.74952 11.9975 3.83483 11.9648 3.89983 11.8998C4.03015 11.7695 4.03015 11.5588 3.89983 11.4285Z" fill="#666666"/>
<path d="M5.23444 10.0978C5.10409 9.96741 4.89343 9.96741 4.76312 10.0978L3.42979 11.4311C3.29944 11.5614 3.29944 11.7721 3.42979 11.9024C3.49479 11.9674 3.58015 12.0001 3.66546 12.0001C3.75081 12.0001 3.83612 11.9674 3.90112 11.9024L5.23444 10.5691C5.3648 10.4388 5.3648 10.2281 5.23444 10.0978Z" fill="#666666"/>
<path d="M17.0026 5.83203H14.6693C14.4853 5.83203 14.3359 5.98102 14.3359 6.16535C14.3359 6.34969 14.4853 6.49867 14.6693 6.49867H17.0026C17.1866 6.49867 17.3359 6.34969 17.3359 6.16535C17.3359 5.98102 17.1866 5.83203 17.0026 5.83203Z" fill="#666666"/>
<path d="M17.0026 7.16797H14.6693C14.4853 7.16797 14.3359 7.31695 14.3359 7.50129C14.3359 7.68562 14.4853 7.83461 14.6693 7.83461H17.0026C17.1866 7.83461 17.3359 7.68562 17.3359 7.50129C17.3359 7.31695 17.1866 7.16797 17.0026 7.16797Z" fill="#666666"/>
<path d="M12.9025 5.92979C12.7721 5.79944 12.5614 5.79944 12.4311 5.92979L11.0978 7.26312C10.9674 7.39347 10.9674 7.60413 11.0978 7.73444C11.1628 7.79944 11.2481 7.8321 11.3334 7.8321C11.4188 7.8321 11.5041 7.79944 11.5691 7.73444L12.9024 6.40112C13.0328 6.27077 13.0328 6.06011 12.9025 5.92979Z" fill="#666666"/>
<path d="M17.0026 10H14.6693C14.4853 10 14.3359 10.149 14.3359 10.3333C14.3359 10.5177 14.4853 10.6666 14.6693 10.6666H17.0026C17.1866 10.6666 17.3359 10.5177 17.3359 10.3333C17.3359 10.149 17.1866 10 17.0026 10Z" fill="#666666"/>
<path d="M17.0026 11.3359H14.6693C14.4853 11.3359 14.3359 11.4849 14.3359 11.6693C14.3359 11.8536 14.4853 12.0026 14.6693 12.0026H17.0026C17.1866 12.0026 17.3359 11.8536 17.3359 11.6693C17.3359 11.4849 17.1866 11.3359 17.0026 11.3359Z" fill="#666666"/>
<path d="M12.9024 7.26312L11.5691 5.92979C11.4387 5.79944 11.2281 5.79944 11.0977 5.92979C10.9674 6.06015 10.9674 6.27081 11.0977 6.40112L12.4311 7.73444C12.4961 7.79944 12.5814 7.8321 12.6667 7.8321C12.7521 7.8321 12.8374 7.79944 12.9024 7.73444C13.0327 7.60413 13.0327 7.39347 12.9024 7.26312Z" fill="#666666"/>
<path d="M12.9025 10.0978C12.7721 9.96741 12.5614 9.96741 12.4311 10.0978L11.0978 11.4311C10.9674 11.5615 10.9674 11.7721 11.0978 11.9025C11.1628 11.9675 11.2481 12.0001 11.3334 12.0001C11.4188 12.0001 11.5041 11.9675 11.5691 11.9025L12.9024 10.5691C13.0328 10.4388 13.0328 10.2281 12.9025 10.0978Z" fill="#666666"/>
<path d="M12.9025 11.4311L11.5691 10.0977C11.4387 9.9674 11.2281 9.96744 11.0978 10.0977C10.9674 10.2281 10.9674 10.4388 11.0978 10.5691L12.4311 11.9024C12.4961 11.9674 12.5814 12.0001 12.6667 12.0001C12.7521 12.0001 12.8374 11.9674 12.9024 11.9024C13.0328 11.7721 13.0328 11.5614 12.9025 11.4311Z" fill="#666666"/>
</svg>
