<svg width="20" height="20" viewBox="0 0 20 20" fill="none" xmlns="http://www.w3.org/2000/svg">
<g clip-path="url(#clip0_2541_39738)">
<path d="M11.2523 14.998H10.8398C10.6741 14.998 10.5151 15.0639 10.3979 15.1811C10.2807 15.2983 10.2148 15.4573 10.2148 15.623C10.2148 15.7888 10.2807 15.9478 10.3979 16.065C10.5151 16.1822 10.6741 16.248 10.8398 16.248H11.2523C11.4181 16.248 11.5771 16.1822 11.6943 16.065C11.8115 15.9478 11.8773 15.7888 11.8773 15.623C11.8773 15.4573 11.8115 15.2983 11.6943 15.1811C11.5771 15.0639 11.4181 14.998 11.2523 14.998Z" fill="#666666"/>
<path d="M8.22266 14.998H5.94141C5.36125 14.998 4.80485 14.7676 4.39461 14.3573C3.98437 13.9471 3.75391 13.3907 3.75391 12.8105C3.75391 12.2304 3.98437 11.674 4.39461 11.2638C4.80485 10.8535 5.36125 10.623 5.94141 10.623H14.0664C14.9781 10.623 15.8524 10.2609 16.4971 9.61623C17.1417 8.97157 17.5039 8.09723 17.5039 7.18555C17.5039 6.27387 17.1417 5.39952 16.4971 4.75487C15.8524 4.11021 14.9781 3.74805 14.0664 3.74805H10.8102C10.6444 3.74805 10.4854 3.8139 10.3682 3.93111C10.251 4.04832 10.1852 4.20729 10.1852 4.37305C10.1852 4.53881 10.251 4.69778 10.3682 4.81499C10.4854 4.9322 10.6444 4.99805 10.8102 4.99805H14.0664C14.6466 4.99805 15.203 5.22852 15.6132 5.63875C16.0234 6.04899 16.2539 6.60539 16.2539 7.18555C16.2539 7.76571 16.0234 8.32211 15.6132 8.73234C15.203 9.14258 14.6466 9.37305 14.0664 9.37305H5.94141C5.02972 9.37305 4.15538 9.73521 3.51073 10.3799C2.86607 11.0245 2.50391 11.8989 2.50391 12.8105C2.50391 13.7222 2.86607 14.5966 3.51073 15.2412C4.15538 15.8859 5.02972 16.248 5.94141 16.248H8.22266C8.38842 16.248 8.54739 16.1822 8.6646 16.065C8.78181 15.9478 8.84766 15.7888 8.84766 15.623C8.84766 15.4573 8.78181 15.2983 8.6646 15.1811C8.54739 15.0639 8.38842 14.998 8.22266 14.998Z" fill="#666666"/>
<path d="M16.2543 11.873C15.4116 11.8878 14.6093 12.2364 14.0234 12.8422C13.4375 13.4481 13.1159 14.2616 13.1293 15.1043C13.1293 17.4168 15.7981 19.198 15.9106 19.273C16.0126 19.3403 16.1321 19.3761 16.2543 19.3761C16.3765 19.3761 16.496 19.3403 16.5981 19.273C16.7106 19.198 19.3793 17.398 19.3793 15.1043C19.3927 14.2616 19.0711 13.4481 18.4852 12.8422C17.8993 12.2364 17.097 11.8878 16.2543 11.873ZM16.2543 17.973C15.5293 17.4043 14.3793 16.2543 14.3793 15.1043C14.3793 14.607 14.5769 14.1301 14.9285 13.7785C15.2801 13.4268 15.757 13.2293 16.2543 13.2293C16.7516 13.2293 17.2285 13.4268 17.5801 13.7785C17.9318 14.1301 18.1293 14.607 18.1293 15.1043C18.1293 16.248 16.9793 17.4043 16.2543 17.973Z" fill="#666666"/>
<path d="M16.5664 14.373H15.9414C15.7756 14.373 15.6167 14.4389 15.4995 14.5561C15.3823 14.6733 15.3164 14.8323 15.3164 14.998C15.3164 15.1638 15.3823 15.3228 15.4995 15.44C15.6167 15.5572 15.7756 15.623 15.9414 15.623H16.5664C16.7322 15.623 16.8911 15.5572 17.0083 15.44C17.1256 15.3228 17.1914 15.1638 17.1914 14.998C17.1914 14.8323 17.1256 14.6733 17.0083 14.5561C16.8911 14.4389 16.7322 14.373 16.5664 14.373Z" fill="#666666"/>
<path d="M4.87109 3.75C5.03685 3.75 5.19583 3.68415 5.31304 3.56694C5.43025 3.44973 5.49609 3.29076 5.49609 3.125V0.625H4.24609V3.125C4.24609 3.29076 4.31194 3.44973 4.42915 3.56694C4.54636 3.68415 4.70533 3.75 4.87109 3.75Z" fill="#666666"/>
<path d="M8.74974 2.31252C8.7031 1.84842 8.48515 1.41836 8.13844 1.10632C7.79174 0.794289 7.34118 0.622686 6.87474 0.625024H6.75599V3.12502C6.75599 3.6223 6.55844 4.09922 6.20681 4.45085C5.85518 4.80248 5.37827 5.00002 4.88099 5.00002C4.38371 5.00002 3.90679 4.80248 3.55516 4.45085C3.20353 4.09922 3.00599 3.6223 3.00599 3.12502V0.625024H2.87474C2.4083 0.622686 1.95774 0.794289 1.61103 1.10632C1.26433 1.41836 1.04638 1.84842 0.999739 2.31252L0.624739 6.06252C0.601302 6.32288 0.632564 6.58525 0.716519 6.83281C0.800473 7.08037 0.935264 7.30764 1.11224 7.50002C1.28698 7.6954 1.50074 7.85196 1.73973 7.95962C1.97872 8.06727 2.23763 8.12362 2.49974 8.12502H7.23724C7.49935 8.12362 7.75826 8.06727 7.99725 7.95962C8.23624 7.85196 8.45 7.6954 8.62474 7.50002C8.80142 7.30638 8.93553 7.07785 9.01843 6.82917C9.10132 6.58049 9.13115 6.31719 9.10599 6.05627L8.74974 2.31252Z" fill="#666666"/>
</g>
<defs>
<clipPath id="clip0_2541_39738">
<rect width="20" height="20" fill="white"/>
</clipPath>
</defs>
</svg>
