<svg width="25" height="24" viewBox="0 0 25 24" fill="none" xmlns="http://www.w3.org/2000/svg">
    <path fill-rule="evenodd" clip-rule="evenodd"
        d="M7.25 16H17.25C20.0114 16 22.25 18.2386 22.25 21C22.25 21.5523 21.8023 22 21.25 22C20.7372 22 20.3145 21.614 20.2567 21.1166L20.2449 20.8237C20.157 19.3072 18.9428 18.093 17.4263 18.0051L17.25 18H7.25C5.59315 18 4.25 19.3431 4.25 21C4.25 21.5523 3.80228 22 3.25 22C2.69772 22 2.25 21.5523 2.25 21C2.25 18.3112 4.37231 16.1182 7.03311 16.0046L7.25 16H17.25H7.25ZM12.25 2C15.5637 2 18.25 4.68629 18.25 8C18.25 11.3137 15.5637 14 12.25 14C8.93629 14 6.25 11.3137 6.25 8C6.25 4.68629 8.93629 2 12.25 2ZM12.25 4C10.0409 4 8.25 5.79086 8.25 8C8.25 10.2091 10.0409 12 12.25 12C14.4591 12 16.25 10.2091 16.25 8C16.25 5.79086 14.4591 4 12.25 4Z"
        fill="#404040" />
</svg>